<?xml version="1.0"?>
<svg width="122.879" height="103.609" xmlns="http://www.w3.org/2000/svg" xmlns:svg="http://www.w3.org/2000/svg">
 <g class="layer">
  <title>Layer 1</title>
  <g id="svg_1">
   <path clip-rule="evenodd" d="m10.368,0l102.144,0c5.703,0 10.367,4.665 10.367,10.367l0,0c0,5.702 -4.664,10.368 -10.367,10.368l-102.144,0c-5.702,0 -10.368,-4.665 -10.368,-10.367l0,0c0,-5.703 4.666,-10.368 10.368,-10.368l0,0zm0,82.875l102.144,0c5.703,0 10.367,4.665 10.367,10.367l0,0c0,5.702 -4.664,10.367 -10.367,10.367l-102.144,0c-5.702,0 -10.368,-4.665 -10.368,-10.367l0,0c0,-5.702 4.666,-10.367 10.368,-10.367l0,0zm0,-41.437l102.144,0c5.703,0 10.367,4.665 10.367,10.367l0,0c0,5.702 -4.664,10.368 -10.367,10.368l-102.144,0c-5.702,0 -10.368,-4.666 -10.368,-10.368l0,0c0,-5.702 4.666,-10.367 10.368,-10.367l0,0z" fill="#fcfcfc" fill-rule="evenodd" id="svg_2"/>
  </g>
 </g>
</svg>