<svg xmlns="http://www.w3.org/2000/svg" width="500" height="500"><rect id="backgroundrect" width="100%" height="100%" x="0" y="0" fill="none" stroke="none" class="" style=""/>
    
<g class="currentLayer" style=""><title>Layer 1</title><path style="line-height:normal;text-indent:0;text-align:start;text-decoration-line:none;text-decoration-style:solid;text-decoration-color:#000;text-transform:none;block-progression:tb;isolation:auto;mix-blend-mode:normal" d="M249.93191865358475,0 C112.1097863427462,0 0,112.10979392801765 0,249.93193556380737 C0,387.7540807700533 112.1097863427462,499.86387112761474 249.93191865358475,499.86387112761474 C387.75405453487923,499.86387112761474 499.8638373071695,387.7540807700533 499.8638373071695,249.93193556380737 C499.8638373071695,112.10979392801765 387.75405453487923,0 249.93191865358475,0 zM249.93191865358475,35.704562223401055 C368.4578822324301,35.704562223401055 464.15927749951453,131.40597110648878 464.15927749951453,249.93193556380737 C464.15927749951453,368.45790716203834 368.4578822324301,464.1593089042137 249.93191865358475,464.1593089042137 C131.40596221565127,464.1593089042137 35.70455980765496,368.45790716203834 35.70455980765496,249.93193556380737 C35.70455980765496,131.40597110648878 131.40596221565127,35.704562223401055 249.93191865358475,35.704562223401055 zM142.81823923061984,214.2273733404063 A35.70455980765496,35.704562223401055 0 0 0 107.11367942296489,249.93193556380737 A35.70455980765496,35.704562223401055 0 0 0 142.81823923061984,285.63649778720844 A35.70455980765496,35.704562223401055 0 0 0 178.5227990382748,249.93193556380737 A35.70455980765496,35.704562223401055 0 0 0 142.81823923061984,214.2273733404063 zM249.93191865358475,214.2273733404063 A35.70455980765496,35.704562223401055 0 0 0 214.22735884592979,249.93193556380737 A35.70455980765496,35.704562223401055 0 0 0 249.93191865358475,285.63649778720844 A35.70455980765496,35.704562223401055 0 0 0 285.6364784612397,249.93193556380737 A35.70455980765496,35.704562223401055 0 0 0 249.93191865358475,214.2273733404063 zM357.0455980765496,214.2273733404063 A35.70455980765496,35.704562223401055 0 0 0 321.34103826889464,249.93193556380737 A35.70455980765496,35.704562223401055 0 0 0 357.0455980765496,285.63649778720844 A35.70455980765496,35.704562223401055 0 0 0 392.7501578842046,249.93193556380737 A35.70455980765496,35.704562223401055 0 0 0 357.0455980765496,214.2273733404063 z" font-weight="400" font-family="sans-serif" white-space="normal" overflow="visible" id="svg_1" class="selected" fill-opacity="1" fill="#c32865"/></g></svg>