<?xml version="1.0"?>
<svg width="128" height="128" xmlns="http://www.w3.org/2000/svg" xmlns:svg="http://www.w3.org/2000/svg">
 <g class="layer">
  <title>Layer 1</title>
  <path d="m0.999998,63.91l0,62.5l126.000002,0l0,-125l-126.000002,0l0,62.5zm101.535842,-5a15.68448,15.56 0 0 1 7.88256,4.5a20.74464,20.58 0 0 1 3.024,4c0,0.16 -5.4432,3.81 -8.75952,5.85c-0.12096,0.08 -0.6048,-0.44 -1.13904,-1.23a7.14672,7.09 0 0 0 -5.91696,-3.53c-3.82032,-0.26 -6.27984,1.73 -6.25968,5a4.61664,4.58 0 0 0 0.54432,2.34c0.83664,1.73 2.39904,2.76 7.29792,4.86c9.0216,3.85 12.88224,6.39 15.28128,10c2.68128,4 3.276,10.46 1.4616,15.24c-2.016,5.2 -6.9552,8.73 -13.94064,9.9a38.626561,38.32 0 0 1 -9.59616,-0.1a23.184,23 0 0 1 -12.79152,-6.55c-1.1592,-1.27 -3.41712,-4.58 -3.276,-4.82a9.41472,9.34 0 0 1 1.1592,-0.73l4.6368,-2.64l3.61872,-2.08l0.756,1.11a16.91424,16.78 0 0 0 4.77792,4.54c4.032,2.1 9.53568,1.81 12.25728,-0.62a5.47344,5.43 0 0 0 0.69552,-6.92c-1.008,-1.39 -3.024,-2.56 -8.65872,-5c-6.5016,-2.78 -9.30384,-4.5 -11.86416,-7.24a16.61184,16.48 0 0 1 -3.45744,-6.25a25.2,25 0 0 1 -0.22176,-8c1.34064,-6.23 6.048,-10.58 12.92256,-11.87a31.913281,31.66 0 0 1 9.56592,0.26l0,-0.02zm-29.57472,5.24l0,5.12l-16.35984,0l0,46.23l-11.60208,0l0,-46.24l-16.40016,0l0,-5a49.583521,49.19 0 0 1 0.14112,-5.16c0.06048,-0.08 10.08,-0.12 22.176,-0.1l21.98448,0l0.06048,5.15z" fill="#c32865" id="svg_1"/>
 </g>
</svg>